<?xml version="1.0" encoding="utf-8"?>
<!-- Generator: Adobe Illustrator 16.0.0, SVG Export Plug-In . SVG Version: 6.00 Build 0)  -->
<!DOCTYPE svg PUBLIC "-//W3C//DTD SVG 1.1//EN" "http://www.w3.org/Graphics/SVG/1.1/DTD/svg11.dtd">
<svg version="1.1" id="Capa_1" xmlns="http://www.w3.org/2000/svg" xmlns:xlink="http://www.w3.org/1999/xlink" x="0px" y="0px"
	 width="130px" height="49px" viewBox="0 0 130 49" enable-background="new 0 0 130 49" xml:space="preserve">
<g>
	<g>
		<g>
			<linearGradient id="SVGID_1_" gradientUnits="userSpaceOnUse" x1="1.582" y1="14.2246" x2="34.2335" y2="24.9195">
				<stop  offset="0.3005" style="stop-color:#E3DB35"/>
				<stop  offset="0.5616" style="stop-color:#90C25E"/>
				<stop  offset="0.734" style="stop-color:#61A79E"/>
				<stop  offset="0.9212" style="stop-color:#355EA5"/>
			</linearGradient>
			<path fill="url(#SVGID_1_)" d="M17.212,12.729c-0.062,0-0.607-0.001-0.669,0.005c-0.061,0.006,0.043-0.002-0.036-0.002
				c-0.083-0.015-0.19,0.014-0.32,0.014c-0.161,0.036-0.063,0.028-0.298,0.065c-2.474,0.387-9.177,2.125-12.226,10.735
				c-0.153-0.825-0.238-1.657-0.238-2.531c0-7.594,6.152-13.738,13.748-13.738c6.654,0,12.242,4.728,13.512,11.003
				C30.868,19.167,31,20.093,31,21.034V35h-5V21.034c0-4.557-3.98-8.306-8.538-8.306"/>
			<linearGradient id="SVGID_2_" gradientUnits="userSpaceOnUse" x1="7.3174" y1="20.6709" x2="37.7137" y2="33.0342">
				<stop  offset="0.0788" style="stop-color:#355EA5"/>
				<stop  offset="0.3684" style="stop-color:#61A79E"/>
				<stop  offset="0.5426" style="stop-color:#90C25E"/>
				<stop  offset="0.6995" style="stop-color:#E3DB35"/>
			</linearGradient>
			<path fill="url(#SVGID_2_)" d="M26,29.308v3.831L24.619,35h-7.446c-0.941,0-1.864-0.201-2.75-0.385
				c-5.456-1.106-9.734-5.492-10.76-10.979c3.048-8.609,9.721-10.448,12.201-10.796c-3.947,0.617-6.94,4.09-6.94,8.207
				c0,4.557,3.98,8.242,8.538,8.242L26,29.308z"/>
		</g>
	</g>
	<g>
		<path fill="#355EA5" d="M48.583,12.81c-0.458,0.018-0.898,0.055-1.319,0.104c0.403-0.067,0.818-0.11,1.252-0.11
			C48.535,12.804,48.559,12.81,48.583,12.81z"/>
		<linearGradient id="SVGID_3_" gradientUnits="userSpaceOnUse" x1="33.9233" y1="5.6675" x2="57.5817" y2="26.588">
			<stop  offset="0.1796" style="stop-color:#E3DB35"/>
			<stop  offset="0.3123" style="stop-color:#90C25E"/>
			<stop  offset="0.6787" style="stop-color:#61A7C3"/>
			<stop  offset="1" style="stop-color:#355EA5"/>
		</linearGradient>
		<path fill="url(#SVGID_3_)" d="M62.448,18.272l-5.713,0.037c-1.088-3.11-4.387-5.346-7.864-5.493l0.043-0.031
			c-0.117,0.006-0.22,0.018-0.331,0.024c-0.024,0-0.049-0.006-0.067-0.006c-0.434,0-0.85,0.043-1.252,0.11
			c-10.729,1.136-11.83,8.951-11.903,10.204c-0.098-0.678-0.165-1.375-0.165-2.084c0-7.594,6.153-13.748,13.748-13.748
			C55.507,7.286,61.072,12.12,62.448,18.272z"/>
		<linearGradient id="SVGID_4_" gradientUnits="userSpaceOnUse" x1="31.7769" y1="18.3848" x2="78.765" y2="35.3686">
			<stop  offset="0.0788" style="stop-color:#355EA5"/>
			<stop  offset="0.2759" style="stop-color:#61A79E"/>
			<stop  offset="0.4635" style="stop-color:#90C25E"/>
			<stop  offset="0.6618" style="stop-color:#E3DB35"/>
		</linearGradient>
		<path fill="url(#SVGID_4_)" d="M62.606,34.794l-13.663-0.013c-0.941,0-1.863-0.092-2.75-0.274
			c-5.584-1.13-9.928-5.651-10.82-11.322c-0.006-0.024-0.006-0.049-0.013-0.067c0.073-1.252,1.174-9.068,11.903-10.204
			c-3.184,0.495-5.548,2.853-6.306,5.957c-0.165,0.691-0.263,1.411-0.263,2.163c0,4.558,3.691,8.25,8.248,8.25l13.644,0.018
			L62.606,34.794z"/>
		<path fill="#355EA5" d="M35.373,23.183c-0.003-0.022-0.005-0.043-0.009-0.066C35.354,23.309,35.367,23.344,35.373,23.183z"/>
		<path fill="#355EA5" d="M48.914,12.786l-0.043,0.031c-0.098,0-0.189-0.006-0.287-0.006C48.694,12.804,48.797,12.792,48.914,12.786
			z"/>
	</g>
	<g>
		<linearGradient id="SVGID_5_" gradientUnits="userSpaceOnUse" x1="70.209" y1="19.2637" x2="104.3249" y2="38.6252">
			<stop  offset="0" style="stop-color:#355EA5"/>
			<stop  offset="0.2379" style="stop-color:#61A79E"/>
			<stop  offset="0.4693" style="stop-color:#90C25E"/>
			<stop  offset="0.7161" style="stop-color:#E3DB35"/>
		</linearGradient>
		<path fill="url(#SVGID_5_)" d="M94.378,34.794l-13.662-0.013c-0.94,0-1.863-0.092-2.75-0.274
			c-0.365-0.073-0.732-0.166-1.087-0.269c-0.116-0.036-0.232-0.08-0.349-0.116c-0.238-0.073-0.477-0.153-0.708-0.238
			c-0.129-0.056-0.263-0.109-0.392-0.165c-0.213-0.086-0.421-0.178-0.629-0.275c-0.128-0.062-0.257-0.129-0.385-0.195
			c-0.202-0.104-0.403-0.214-0.599-0.323c-0.123-0.073-0.245-0.146-0.36-0.22c-0.202-0.123-0.397-0.258-0.588-0.392
			c-0.109-0.073-0.22-0.146-0.323-0.221c-0.214-0.164-0.422-0.329-0.629-0.5c-0.073-0.063-0.146-0.123-0.22-0.185
			c-0.276-0.237-0.537-0.481-0.795-0.745c-0.049-0.049-0.098-0.109-0.153-0.165c-0.195-0.207-0.385-0.414-0.567-0.635
			c-0.092-0.104-0.171-0.214-0.256-0.317c-0.142-0.178-0.275-0.361-0.411-0.544c-0.085-0.123-0.17-0.251-0.256-0.38
			c-0.116-0.177-0.227-0.348-0.336-0.531c-0.08-0.141-0.165-0.28-0.245-0.421c-0.091-0.178-0.188-0.355-0.274-0.532
			c-0.073-0.152-0.152-0.305-0.22-0.458c-0.08-0.178-0.152-0.366-0.227-0.55c-0.067-0.159-0.134-0.317-0.188-0.476
			c-0.068-0.196-0.129-0.392-0.189-0.588c-0.08-0.256-0.147-0.52-0.215-0.782c-0.055-0.232-0.115-0.47-0.158-0.703
			c3.037-8.571,9.69-10.358,12.195-10.713c-0.226,0.037-0.445,0.1-0.659,0.155c-0.086,0.018-0.159,0.042-0.239,0.067
			c-0.146,0.043-0.293,0.08-0.434,0.128c-0.085,0.031-0.165,0.062-0.25,0.092c-0.135,0.055-0.263,0.104-0.397,0.159
			c-0.079,0.036-0.158,0.074-0.238,0.116c-0.128,0.061-0.257,0.122-0.385,0.189c-0.073,0.042-0.147,0.085-0.221,0.123
			c-0.128,0.08-0.256,0.158-0.384,0.245c-0.062,0.036-0.128,0.08-0.19,0.122c-0.14,0.098-0.275,0.201-0.409,0.305
			c-0.042,0.036-0.085,0.067-0.127,0.104c-0.355,0.287-0.686,0.61-0.985,0.959c-0.024,0.031-0.054,0.067-0.078,0.097
			c-0.117,0.142-0.233,0.282-0.337,0.428c-0.048,0.061-0.086,0.123-0.128,0.178c-0.086,0.127-0.171,0.25-0.251,0.378
			c-0.043,0.074-0.085,0.153-0.128,0.227c-0.073,0.121-0.135,0.244-0.202,0.366c-0.042,0.086-0.085,0.171-0.122,0.256
			c-0.055,0.116-0.104,0.239-0.153,0.355c-0.042,0.098-0.078,0.046-0.115,0.144C72.963,18.087,72.95,18,72.938,18h0.006
			c-0.306,1-0.477,2.034-0.477,3s0.178,2,0.477,3h-0.006c0.019,0,0.03-0.016,0.055,0.026c0.013,0.042,0.037,0.031,0.049,0.08
			c0.037,0.086,0.066,0.15,0.11,0.236c0.092,0.214,0.189,0.413,0.299,0.615c0.024,0.048,0.056,0.085,0.08,0.128
			c0.091,0.166,0.195,0.326,0.299,0.492c0.043,0.066,0.092,0.131,0.141,0.198c0.098,0.135,0.195,0.269,0.293,0.397
			c0.055,0.061,0.104,0.129,0.159,0.19c0.116,0.141,0.245,0.273,0.372,0.407c0.037,0.037,0.073,0.08,0.117,0.122
			c0.17,0.171,0.348,0.33,0.537,0.489c0.037,0.029,0.073,0.056,0.11,0.085c0.152,0.122,0.306,0.238,0.47,0.349
			c0.063,0.043,0.123,0.085,0.189,0.128c0.146,0.093,0.294,0.184,0.447,0.269c0.061,0.037,0.128,0.073,0.195,0.111
			c0.183,0.098,0.372,0.188,0.567,0.273c0.031,0.014,0.062,0.031,0.092,0.044c0.227,0.092,0.458,0.177,0.696,0.25
			c0.061,0.024,0.122,0.036,0.183,0.056c0.178,0.055,0.355,0.097,0.538,0.14c0.08,0.019,0.165,0.031,0.245,0.049
			c0.178,0.031,0.354,0.061,0.531,0.08c0.08,0.012,0.153,0.019,0.233,0.03c0.256,0.019,0.506,0.037,0.769,0.037l13.645,0.018
			L94.378,34.794z"/>
		<linearGradient id="SVGID_6_" gradientUnits="userSpaceOnUse" x1="65.5796" y1="10.1094" x2="91.1515" y2="23.7111">
			<stop  offset="0.0745" style="stop-color:#E3DB35"/>
			<stop  offset="0.3657" style="stop-color:#90C25E"/>
			<stop  offset="0.6181" style="stop-color:#61A7C3"/>
			<stop  offset="1" style="stop-color:#355EA5"/>
		</linearGradient>
		<path fill="url(#SVGID_6_)" d="M94.22,18.381L94.213,24H72.944c-0.299-1-0.477-2.034-0.477-3s0.171-2,0.477-3h15.55
			c-1.131-2-4.193-5.319-7.786-5.319c-0.434,0-0.89,0.098-1.306,0.158c-0.012,0,0.013,0,0,0c-2.505,0.355-9.158,2.145-12.195,10.718
			c-0.152-0.832-0.238-1.667-0.238-2.535c0-7.595,6.152-13.688,13.747-13.688C87.278,7.334,92.845,12.228,94.22,18.381z"/>
		<path fill="#355EA5" d="M72.993,23.918c-0.024-0.043-0.036-0.086-0.055-0.135h0.006C72.963,23.833,72.98,23.875,72.993,23.918z"/>
		<path fill="#355EA5" d="M72.969,18.205c-0.006,0.025-0.019,0.056-0.024,0.08h-0.006C72.95,18.261,72.963,18.23,72.969,18.205z"/>
	</g>
	<g>
		<g>
			<linearGradient id="SVGID_7_" gradientUnits="userSpaceOnUse" x1="94.6484" y1="2.834" x2="121.9335" y2="27.8377">
				<stop  offset="0.157" style="stop-color:#E3DB35"/>
				<stop  offset="0.481" style="stop-color:#90C25E"/>
				<stop  offset="0.7529" style="stop-color:#61A79E"/>
				<stop  offset="1" style="stop-color:#355EA5"/>
			</linearGradient>
			<path fill="url(#SVGID_7_)" d="M111.876,12.706c-0.146,0-0.53,0.081-0.671,0.105c-2.48,0.349-9.178,2.125-12.226,10.735
				c-0.153-0.825-0.238-1.657-0.238-2.531c0-7.594,6.152-13.738,13.747-13.738c6.653,0,12.085,4.728,13.354,11.003
				c0.183,0.886,0.157,1.812,0.157,2.753V35h-5V21.034c0-4.557-3.854-8.306-8.412-8.306"/>
			<linearGradient id="SVGID_8_" gradientUnits="userSpaceOnUse" x1="95.29" y1="15.2793" x2="128.3114" y2="34.5749">
				<stop  offset="0.0788" style="stop-color:#355EA5"/>
				<stop  offset="0.3684" style="stop-color:#61A79E"/>
				<stop  offset="0.5426" style="stop-color:#90C25E"/>
				<stop  offset="0.6995" style="stop-color:#E3DB35"/>
			</linearGradient>
			<path fill="url(#SVGID_8_)" d="M121,29.308v3.831L119.935,35h-7.446c-0.94,0-1.864-0.201-2.75-0.385
				c-5.456-1.106-9.733-5.492-10.759-10.979c3.048-8.609,9.729-10.449,12.21-10.797c-3.947,0.617-6.95,4.091-6.95,8.208
				c0,4.557,3.823,8.242,8.382,8.242L121,29.308z"/>
		</g>
	</g>
</g>
<text transform="matrix(1 0 0 1 64.125 44.75)" fill="#FFFFFF" font-family="'Redline'" font-size="12">Dominicana</text>
</svg>
